<?xml version='1.0' encoding='utf-8'?>
<svg width="800" height="600" xmlns="http://www.w3.org/2000/svg"><g id="MidlinePath" style="fill:none;stroke:rgb(0, 255, 0);stroke-width:2"><polyline points="217.01018675721562,195.0 219.98981324278438,195.0" data-id="0" data-type="midline" /><polyline points="264.5,188.5 219.98981324278438,195.0" data-id="1" data-type="midline" /><polyline points="210.50007873740202,279.5 225.49992126259798,279.5" data-id="2" data-type="midline" /><polyline points="264.5,278.0 225.49992126259798,279.5" data-id="3" data-type="midline" /><polyline points="218.0,365.946675900277 218.0,368.053324099723" data-id="4" data-type="midline" /><polyline points="264.5,365.5 218.0,365.946675900277" data-id="5" data-type="midline" /><polyline points="214.02616025880303,458.0 221.97383974119697,458.0" data-id="6" data-type="midline" /><polyline points="265.0,459.5 221.97383974119697,458.0" data-id="7" data-type="midline" /><polyline points="206.9438745800672,537.0 229.0561254199328,537.0" data-id="8" data-type="midline" /><polyline points="265.0,536.5 229.0561254199328,537.0" data-id="9" data-type="midline" /><polyline points="291.5,176.4289256198347 291.5,548.5710743801653" data-id="10" data-type="midline" /><polyline points="290.5,573.5 291.5,548.5710743801653" data-id="11" data-type="midline" /><polyline points="317.5,537.0 291.5,548.5710743801653" data-id="12" data-type="midline" /><polyline points="318.0,471.5 291.5,548.5710743801653" data-id="13" data-type="midline" /><polyline points="265.0,459.5 291.5,548.5710743801653" data-id="14" data-type="midline" /><polyline points="265.0,536.5 291.5,548.5710743801653" data-id="15" data-type="midline" /><polyline points="264.5,365.5 291.5,548.5710743801653" data-id="16" data-type="midline" /><polyline points="318.0,401.5 291.5,548.5710743801653" data-id="17" data-type="midline" /><polyline points="264.5,278.0 291.5,176.4289256198347" data-id="18" data-type="midline" /><polyline points="264.5,188.5 291.5,176.4289256198347" data-id="19" data-type="midline" /><polyline points="318.0,176.5 291.5,176.4289256198347" data-id="20" data-type="midline" /><polyline points="369.0,490.9510204081633 369.0,524.0489795918368" data-id="21" data-type="midline" /><polyline points="317.5,537.0 369.0,524.0489795918368" data-id="22" data-type="midline" /><polyline points="318.0,471.5 369.0,490.9510204081633" data-id="23" data-type="midline" /><polyline points="417.5,490.0 369.0,490.9510204081633" data-id="24" data-type="midline" /><polyline points="369.0,323.9760299329313 369.0,389.0239700670687" data-id="25" data-type="midline" /><polyline points="318.0,401.5 369.0,389.0239700670687" data-id="26" data-type="midline" /><polyline points="420.0,404.5 369.0,389.0239700670687" data-id="27" data-type="midline" /><polyline points="440.5,461.3926084203862 440.5,537.6073915796138" data-id="28" data-type="midline" /><polyline points="417.5,490.0 440.5,461.3926084203862" data-id="29" data-type="midline" /><polyline points="441.5,370.4942234503638 441.5,418.5057765496362" data-id="30" data-type="midline" /><polyline points="420.0,404.5 441.5,418.5057765496362" data-id="31" data-type="midline" /><polyline points="344.43263265331046,176.5 685.5673673466895,176.5" data-id="32" data-type="midline" /><polyline points="318.0,176.5 344.43263265331046,176.5" data-id="33" data-type="midline" /><polyline points="685.5,203.5 685.5673673466895,176.5" data-id="34" data-type="midline" /><polyline points="685.5,229.4404319847201 685.5,573.5595680152799" data-id="35" data-type="midline" /><polyline points="685.5,203.5 685.5,229.4404319847201" data-id="36" data-type="midline" /><polyline points="660.0,432.0 685.5,573.5595680152799" data-id="37" data-type="midline" /><polyline points="658.5,504.5 685.5,573.5595680152799" data-id="38" data-type="midline" /><polyline points="712.5,502.0 685.5,573.5595680152799" data-id="39" data-type="midline" /><polyline points="712.0,567.5 685.5,573.5595680152799" data-id="40" data-type="midline" /><polyline points="659.0,587.5 685.5,573.5595680152799" data-id="41" data-type="midline" /><polyline points="277.4937030135578,587.5 646.5062969864422,587.5" data-id="42" data-type="midline" /><polyline points="290.5,573.5 277.4937030135578,587.5" data-id="43" data-type="midline" /><polyline points="659.0,587.5 646.5062969864422,587.5" data-id="44" data-type="midline" /><polyline points="745.500046142488,566.5 764.499953857512,566.5" data-id="45" data-type="midline" /><polyline points="712.0,567.5 745.500046142488,566.5" data-id="46" data-type="midline" /><polyline points="742.0075757575758,503.0 769.9924242424242,503.0" data-id="47" data-type="midline" /><polyline points="712.5,502.0 742.0075757575758,503.0" data-id="48" data-type="midline" /><polyline points="605.4124260355029,499.5 629.5875739644971,499.5" data-id="49" data-type="midline" /><polyline points="658.5,504.5 629.5875739644971,499.5" data-id="50" data-type="midline" /><polyline points="605.9957800100913,438.0 630.0042199899087,438.0" data-id="51" data-type="midline" /><polyline points="660.0,432.0 630.0042199899087,438.0" data-id="52" data-type="midline" /></g></svg>