<?xml version='1.0' encoding='utf-8'?>
<svg width="800" height="600" xmlns="http://www.w3.org/2000/svg"><g id="MidlinePath" style="fill:none;stroke:rgb(0, 255, 0);stroke-width:2"><polyline points="29.0,161.00069444444443 29.0,174.99930555555557" data-id="0" data-type="midline" /><polyline points="57.5,168.5 29.0,174.99930555555557" data-id="1" data-type="midline" /><polyline points="31.074074074074073,168.58024691358025 29.0,174.99930555555557" data-id="2" data-type="midline" /><polyline points="94.44755555555555,168.5 541.5524444444444,168.5" data-id="3" data-type="midline" /><polyline points="541.5,204.0 541.5524444444444,168.5" data-id="4" data-type="midline" /><polyline points="57.5,168.5 94.44755555555555,168.5" data-id="5" data-type="midline" /><polyline points="361.5,131.0 541.5524444444444,168.5" data-id="6" data-type="midline" /><polyline points="445.5,132.0 541.5524444444444,168.5" data-id="7" data-type="midline" /><polyline points="519.5,130.0 541.5524444444444,168.5" data-id="8" data-type="midline" /><polyline points="83.5,130.0 94.44755555555555,168.5" data-id="9" data-type="midline" /><polyline points="541.5,241.45191102123357 541.5,512.5480889787664" data-id="10" data-type="midline" /><polyline points="540.0,549.0 541.5,512.5480889787664" data-id="11" data-type="midline" /><polyline points="541.5,204.0 541.5,241.45191102123357" data-id="12" data-type="midline" /><polyline points="578.0,244.0 541.5,241.45191102123357" data-id="13" data-type="midline" /><polyline points="577.5,323.5 541.5,241.45191102123357" data-id="14" data-type="midline" /><polyline points="578.0,413.5 541.5,512.5480889787664" data-id="15" data-type="midline" /><polyline points="578.5,498.0 541.5,512.5480889787664" data-id="16" data-type="midline" /><polyline points="541.0,568.1 541.0,581.9" data-id="17" data-type="midline" /><polyline points="540.0,549.0 541.0,568.1" data-id="18" data-type="midline" /><polyline points="539.716049382716,573.5185185185185 541.0,568.1" data-id="19" data-type="midline" /><polyline points="624.4920858349733,502.5 752.5079141650267,502.5" data-id="20" data-type="midline" /><polyline points="578.5,498.0 624.4920858349733,502.5" data-id="21" data-type="midline" /><polyline points="621.5055429864253,412.5 755.4944570135747,412.5" data-id="22" data-type="midline" /><polyline points="578.0,413.5 621.5055429864253,412.5" data-id="23" data-type="midline" /><polyline points="621.5055429864253,325.5 755.4944570135747,325.5" data-id="24" data-type="midline" /><polyline points="577.5,323.5 621.5055429864253,325.5" data-id="25" data-type="midline" /><polyline points="616.5079201231774,243.5 760.4920798768226,243.5" data-id="26" data-type="midline" /><polyline points="578.0,244.0 616.5079201231774,243.5" data-id="27" data-type="midline" /><polyline points="352.04324324324324,102.0 369.95675675675676,102.0" data-id="28" data-type="midline" /><polyline points="361.5,131.0 369.95675675675676,102.0" data-id="29" data-type="midline" /><polyline points="426.5375,102.5 449.4625,102.5" data-id="30" data-type="midline" /><polyline points="445.5,132.0 449.4625,102.5" data-id="31" data-type="midline" /><polyline points="506.50243506493507,102.5 526.4975649350649,102.5" data-id="32" data-type="midline" /><polyline points="519.5,130.0 526.4975649350649,102.5" data-id="33" data-type="midline" /><polyline points="82.5,24.50006313131313 82.5,107.49993686868687" data-id="34" data-type="midline" /><polyline points="83.5,130.0 82.5,107.49993686868687" data-id="35" data-type="midline" /><polyline points="107.5,115.5 82.5,107.49993686868687" data-id="36" data-type="midline" /><polyline points="105.5,71.5 82.5,107.49993686868687" data-id="37" data-type="midline" /><polyline points="106.5,22.0 82.5,24.50006313131313" data-id="38" data-type="midline" /><polyline points="133.4704447346996,26.5 163.5295552653004,26.5" data-id="39" data-type="midline" /><polyline points="106.5,22.0 133.4704447346996,26.5" data-id="40" data-type="midline" /><polyline points="128.5,74.5 171.5,74.5" data-id="41" data-type="midline" /><polyline points="105.5,71.5 128.5,74.5" data-id="42" data-type="midline" /><polyline points="125.03229974160207,114.0 174.96770025839794,114.0" data-id="43" data-type="midline" /><polyline points="107.5,115.5 125.03229974160207,114.0" data-id="44" data-type="midline" /></g></svg>