<?xml version='1.0' encoding='utf-8'?>
<svg width="800" height="600" xmlns="http://www.w3.org/2000/svg"><g id="MidlinePath" style="fill:none;stroke:rgb(0, 255, 0);stroke-width:2"><polyline points="-599.9986406117247,-1.0 -591.0013593882753,-1.0" data-id="0" data-type="midline" /><polyline points="-543.5,-0.5 -591.0013593882753,-1.0" data-id="1" data-type="midline" /><polyline points="-594.3649172720958,-4.820079745446759 -591.0013593882753,-1.0" data-id="2" data-type="midline" /><polyline points="341.74338624338617,2.830140589842391e-15 341.7433862433862,-1.4150702949211954e-15" data-id="3" data-type="midline" /><polyline points="341.74338624338617,2.830140589842391e-15 341.7433862433862,-1.4150702949211954e-15" data-id="4" data-type="midline" /><polyline points="341.74338624338617,-1.415070294921163e-15 341.7433862433862,-1.4150702949211954e-15" data-id="5" data-type="midline" /><polyline points="341.74338624338617,-1.415070294921163e-15 341.74338624338617,2.830140589842391e-15" data-id="6" data-type="midline" /><polyline points="306.8915343915344,2.830140589842326e-15 341.74338624338617,-1.415070294921163e-15" data-id="7" data-type="midline" /><polyline points="306.8915343915344,-1.4150702949211954e-15 306.8915343915344,2.830140589842326e-15" data-id="8" data-type="midline" /><polyline points="306.8915343915343,2.830140589842391e-15 306.8915343915344,2.830140589842326e-15" data-id="9" data-type="midline" /><polyline points="306.8915343915343,2.830140589842391e-15 306.8915343915344,-1.4150702949211954e-15" data-id="10" data-type="midline" /><polyline points="306.8915343915343,-1.415070294921163e-15 306.8915343915344,-1.4150702949211954e-15" data-id="11" data-type="midline" /><polyline points="306.8915343915343,-1.415070294921163e-15 306.8915343915343,2.830140589842391e-15" data-id="12" data-type="midline" /><polyline points="272.03968253968253,2.830140589842326e-15 306.8915343915343,-1.415070294921163e-15" data-id="13" data-type="midline" /><polyline points="272.03968253968253,-1.4150702949211954e-15 272.03968253968253,2.830140589842326e-15" data-id="14" data-type="midline" /><polyline points="272.0396825396825,2.830140589842391e-15 272.03968253968253,2.830140589842326e-15" data-id="15" data-type="midline" /><polyline points="272.0396825396825,2.830140589842391e-15 272.03968253968253,-1.4150702949211954e-15" data-id="16" data-type="midline" /><polyline points="272.0396825396825,-1.415070294921163e-15 272.03968253968253,-1.4150702949211954e-15" data-id="17" data-type="midline" /><polyline points="272.0396825396825,-1.415070294921163e-15 272.0396825396825,2.830140589842391e-15" data-id="18" data-type="midline" /><polyline points="222.25132275132276,0.0 272.0396825396825,-1.415070294921163e-15" data-id="19" data-type="midline" /><polyline points="222.25132275132276,-1.4150702949211954e-15 222.25132275132276,0.0" data-id="20" data-type="midline" /><polyline points="222.25132275132273,0.0 222.25132275132276,0.0" data-id="21" data-type="midline" /><polyline points="222.25132275132273,0.0 222.25132275132276,-1.4150702949211954e-15" data-id="22" data-type="midline" /><polyline points="222.25132275132273,-1.4150702949211793e-15 222.25132275132276,-1.4150702949211954e-15" data-id="23" data-type="midline" /><polyline points="222.25132275132273,-1.4150702949211793e-15 222.25132275132273,0.0" data-id="24" data-type="midline" /><polyline points="137.61111111111111,0.0 222.25132275132273,-1.4150702949211793e-15" data-id="25" data-type="midline" /><polyline points="137.61111111111111,-1.4150702949211954e-15 137.61111111111111,0.0" data-id="26" data-type="midline" /><polyline points="137.6111111111111,0.0 137.61111111111111,0.0" data-id="27" data-type="midline" /><polyline points="137.6111111111111,0.0 137.61111111111111,-1.4150702949211954e-15" data-id="28" data-type="midline" /><polyline points="137.6111111111111,-1.4150702949211793e-15 137.61111111111111,-1.4150702949211954e-15" data-id="29" data-type="midline" /><polyline points="137.6111111111111,-1.4150702949211793e-15 137.6111111111111,0.0" data-id="30" data-type="midline" /><polyline points="117.69576719576722,2.830140589842294e-15 137.6111111111111,-1.4150702949211793e-15" data-id="31" data-type="midline" /><polyline points="117.69576719576722,-1.4150702949211954e-15 117.69576719576722,2.830140589842294e-15" data-id="32" data-type="midline" /><polyline points="117.69576719576713,2.830140589842391e-15 117.69576719576722,2.830140589842294e-15" data-id="33" data-type="midline" /><polyline points="117.69576719576713,2.830140589842391e-15 117.69576719576722,-1.4150702949211954e-15" data-id="34" data-type="midline" /><polyline points="117.69576719576713,-1.415070294921147e-15 117.69576719576722,-1.4150702949211954e-15" data-id="35" data-type="midline" /><polyline points="117.69576719576713,-1.415070294921147e-15 117.69576719576713,2.830140589842391e-15" data-id="36" data-type="midline" /><polyline points="102.75925925925927,0.0 117.69576719576713,-1.415070294921147e-15" data-id="37" data-type="midline" /><polyline points="102.75925925925927,-1.4150702949211954e-15 102.75925925925927,0.0" data-id="38" data-type="midline" /><polyline points="102.75925925925924,0.0 102.75925925925927,0.0" data-id="39" data-type="midline" /><polyline points="102.75925925925924,0.0 102.75925925925927,-1.4150702949211954e-15" data-id="40" data-type="midline" /><polyline points="102.75925925925924,-1.4150702949211793e-15 102.75925925925927,-1.4150702949211954e-15" data-id="41" data-type="midline" /><polyline points="102.75925925925924,-1.4150702949211793e-15 102.75925925925924,0.0" data-id="42" data-type="midline" /><polyline points="82.84391534391537,2.830140589842294e-15 102.75925925925924,-1.4150702949211793e-15" data-id="43" data-type="midline" /><polyline points="82.84391534391537,-1.4150702949211954e-15 82.84391534391537,2.830140589842294e-15" data-id="44" data-type="midline" /><polyline points="82.84391534391528,2.830140589842391e-15 82.84391534391537,2.830140589842294e-15" data-id="45" data-type="midline" /><polyline points="82.84391534391528,2.830140589842391e-15 82.84391534391537,-1.4150702949211954e-15" data-id="46" data-type="midline" /><polyline points="82.84391534391528,-1.415070294921147e-15 82.84391534391537,-1.4150702949211954e-15" data-id="47" data-type="midline" /><polyline points="82.84391534391528,-1.415070294921147e-15 82.84391534391528,2.830140589842391e-15" data-id="48" data-type="midline" /><polyline points="67.90740740740742,0.0 82.84391534391528,-1.415070294921147e-15" data-id="49" data-type="midline" /><polyline points="67.90740740740742,-1.4150702949211954e-15 67.90740740740742,0.0" data-id="50" data-type="midline" /><polyline points="67.90740740740739,0.0 67.90740740740742,0.0" data-id="51" data-type="midline" /><polyline points="67.90740740740739,0.0 67.90740740740742,-1.4150702949211954e-15" data-id="52" data-type="midline" /><polyline points="67.90740740740739,-1.4150702949211793e-15 67.90740740740742,-1.4150702949211954e-15" data-id="53" data-type="midline" /><polyline points="67.90740740740739,-1.4150702949211793e-15 67.90740740740739,0.0" data-id="54" data-type="midline" /><polyline points="47.99206349206352,2.830140589842294e-15 67.90740740740739,-1.4150702949211793e-15" data-id="55" data-type="midline" /><polyline points="47.99206349206352,-1.4150702949211954e-15 47.99206349206352,2.830140589842294e-15" data-id="56" data-type="midline" /><polyline points="47.99206349206344,2.830140589842391e-15 47.99206349206352,2.830140589842294e-15" data-id="57" data-type="midline" /><polyline points="47.99206349206344,2.830140589842391e-15 47.99206349206352,-1.4150702949211954e-15" data-id="58" data-type="midline" /><polyline points="47.99206349206344,-1.415070294921147e-15 47.99206349206352,-1.4150702949211954e-15" data-id="59" data-type="midline" /><polyline points="47.99206349206344,-1.415070294921147e-15 47.99206349206344,2.830140589842391e-15" data-id="60" data-type="midline" /><polyline points="33.05555555555557,0.0 47.99206349206344,-1.415070294921147e-15" data-id="61" data-type="midline" /><polyline points="33.05555555555557,-1.4150702949211954e-15 33.05555555555557,0.0" data-id="62" data-type="midline" /><polyline points="33.05555555555554,0.0 33.05555555555557,0.0" data-id="63" data-type="midline" /><polyline points="33.05555555555554,0.0 33.05555555555557,-1.4150702949211954e-15" data-id="64" data-type="midline" /><polyline points="33.05555555555554,-1.4150702949211793e-15 33.05555555555557,-1.4150702949211954e-15" data-id="65" data-type="midline" /><polyline points="33.05555555555554,-1.4150702949211793e-15 33.05555555555554,0.0" data-id="66" data-type="midline" /><polyline points="18.11904761904762,0.0 33.05555555555554,-1.4150702949211793e-15" data-id="67" data-type="midline" /><polyline points="18.11904761904762,-1.4150702949211954e-15 18.11904761904762,0.0" data-id="68" data-type="midline" /><polyline points="18.119047619047592,0.0 18.11904761904762,0.0" data-id="69" data-type="midline" /><polyline points="18.119047619047592,0.0 18.11904761904762,-1.4150702949211954e-15" data-id="70" data-type="midline" /><polyline points="18.119047619047592,-1.4150702949211793e-15 18.11904761904762,-1.4150702949211954e-15" data-id="71" data-type="midline" /><polyline points="18.119047619047592,-1.4150702949211793e-15 18.119047619047592,0.0" data-id="72" data-type="midline" /><polyline points="-1.7962962962962763,0.0 18.119047619047592,-1.4150702949211793e-15" data-id="73" data-type="midline" /><polyline points="-1.7962962962962763,-1.4150702949211954e-15 -1.7962962962962763,0.0" data-id="74" data-type="midline" /><polyline points="-1.7962962962963047,0.0 -1.7962962962962763,0.0" data-id="75" data-type="midline" /><polyline points="-1.7962962962963047,0.0 -1.7962962962962763,-1.4150702949211954e-15" data-id="76" data-type="midline" /><polyline points="-1.7962962962963047,-1.4150702949211793e-15 -1.7962962962962763,-1.4150702949211954e-15" data-id="77" data-type="midline" /><polyline points="-1.7962962962963047,-1.4150702949211793e-15 -1.7962962962963047,0.0" data-id="78" data-type="midline" /><polyline points="-16.732804232804227,0.0 -1.7962962962963047,-1.4150702949211793e-15" data-id="79" data-type="midline" /><polyline points="-16.732804232804227,-1.4150702949211954e-15 -16.732804232804227,0.0" data-id="80" data-type="midline" /><polyline points="-16.732804232804256,0.0 -16.732804232804227,0.0" data-id="81" data-type="midline" /><polyline points="-16.732804232804256,0.0 -16.732804232804227,-1.4150702949211954e-15" data-id="82" data-type="midline" /><polyline points="-16.732804232804256,-1.4150702949211793e-15 -16.732804232804227,-1.4150702949211954e-15" data-id="83" data-type="midline" /><polyline points="-16.732804232804256,-1.4150702949211793e-15 -16.732804232804256,0.0" data-id="84" data-type="midline" /><polyline points="-61.54232804232802,0.0 -16.732804232804256,-1.4150702949211793e-15" data-id="85" data-type="midline" /><polyline points="-61.54232804232802,-1.4150702949211954e-15 -61.54232804232802,0.0" data-id="86" data-type="midline" /><polyline points="-61.54232804232805,0.0 -61.54232804232802,0.0" data-id="87" data-type="midline" /><polyline points="-61.54232804232805,0.0 -61.54232804232802,-1.4150702949211954e-15" data-id="88" data-type="midline" /><polyline points="-61.54232804232805,-1.4150702949211793e-15 -61.54232804232802,-1.4150702949211954e-15" data-id="89" data-type="midline" /><polyline points="-61.54232804232805,-1.4150702949211793e-15 -61.54232804232805,0.0" data-id="90" data-type="midline" /><polyline points="-81.45767195767195,1.4150702949211793e-15 -61.54232804232805,-1.4150702949211793e-15" data-id="91" data-type="midline" /><polyline points="-81.45767195767195,0.0 -81.45767195767195,1.4150702949211793e-15" data-id="92" data-type="midline" /><polyline points="-81.45767195767198,1.4150702949211954e-15 -81.45767195767195,1.4150702949211793e-15" data-id="93" data-type="midline" /><polyline points="-81.45767195767198,1.4150702949211954e-15 -81.45767195767195,0.0" data-id="94" data-type="midline" /><polyline points="-81.45767195767198,0.0 -81.45767195767195,0.0" data-id="95" data-type="midline" /><polyline points="-81.45767195767198,0.0 -81.45767195767198,1.4150702949211954e-15" data-id="96" data-type="midline" /><polyline points="-126.26719576719574,1.4150702949211793e-15 -81.45767195767198,0.0" data-id="97" data-type="midline" /><polyline points="-126.26719576719574,0.0 -126.26719576719574,1.4150702949211793e-15" data-id="98" data-type="midline" /><polyline points="-126.26719576719577,1.4150702949211954e-15 -126.26719576719574,1.4150702949211793e-15" data-id="99" data-type="midline" /><polyline points="-126.26719576719577,1.4150702949211954e-15 -126.26719576719574,0.0" data-id="100" data-type="midline" /><polyline points="-126.26719576719577,0.0 -126.26719576719574,0.0" data-id="101" data-type="midline" /><polyline points="-126.26719576719577,0.0 -126.26719576719577,1.4150702949211954e-15" data-id="102" data-type="midline" /><polyline points="-141.2037037037037,1.4150702949211793e-15 -126.26719576719577,0.0" data-id="103" data-type="midline" /><polyline points="-141.2037037037037,0.0 -141.2037037037037,1.4150702949211793e-15" data-id="104" data-type="midline" /><polyline points="-141.20370370370372,1.4150702949211954e-15 -141.2037037037037,1.4150702949211793e-15" data-id="105" data-type="midline" /><polyline points="-141.20370370370372,1.4150702949211954e-15 -141.2037037037037,0.0" data-id="106" data-type="midline" /><polyline points="-141.20370370370372,0.0 -141.2037037037037,0.0" data-id="107" data-type="midline" /><polyline points="-141.20370370370372,0.0 -141.20370370370372,1.4150702949211954e-15" data-id="108" data-type="midline" /><polyline points="-161.1190476190476,1.4150702949211793e-15 -141.20370370370372,0.0" data-id="109" data-type="midline" /><polyline points="-161.1190476190476,0.0 -161.1190476190476,1.4150702949211793e-15" data-id="110" data-type="midline" /><polyline points="-161.11904761904762,1.4150702949211954e-15 -161.1190476190476,1.4150702949211793e-15" data-id="111" data-type="midline" /><polyline points="-161.11904761904762,1.4150702949211954e-15 -161.1190476190476,0.0" data-id="112" data-type="midline" /><polyline points="-161.11904761904762,0.0 -161.1190476190476,0.0" data-id="113" data-type="midline" /><polyline points="-161.11904761904762,0.0 -161.11904761904762,1.4150702949211954e-15" data-id="114" data-type="midline" /><polyline points="-176.05555555555554,1.4150702949211793e-15 -161.11904761904762,0.0" data-id="115" data-type="midline" /><polyline points="-176.05555555555554,0.0 -176.05555555555554,1.4150702949211793e-15" data-id="116" data-type="midline" /><polyline points="-176.05555555555557,1.4150702949211954e-15 -176.05555555555554,1.4150702949211793e-15" data-id="117" data-type="midline" /><polyline points="-176.05555555555557,1.4150702949211954e-15 -176.05555555555554,0.0" data-id="118" data-type="midline" /><polyline points="-176.05555555555557,0.0 -176.05555555555554,0.0" data-id="119" data-type="midline" /><polyline points="-176.05555555555557,0.0 -176.05555555555557,1.4150702949211954e-15" data-id="120" data-type="midline" /><polyline points="-195.97089947089944,2.830140589842326e-15 -176.05555555555557,0.0" data-id="121" data-type="midline" /><polyline points="-195.97089947089944,0.0 -195.97089947089944,2.830140589842326e-15" data-id="122" data-type="midline" /><polyline points="-195.9708994708995,2.830140589842391e-15 -195.97089947089944,2.830140589842326e-15" data-id="123" data-type="midline" /><polyline points="-195.9708994708995,2.830140589842391e-15 -195.97089947089944,0.0" data-id="124" data-type="midline" /><polyline points="-195.9708994708995,0.0 -195.97089947089944,0.0" data-id="125" data-type="midline" /><polyline points="-195.9708994708995,0.0 -195.9708994708995,2.830140589842391e-15" data-id="126" data-type="midline" /><polyline points="-210.9074074074074,1.4150702949211793e-15 -195.9708994708995,0.0" data-id="127" data-type="midline" /><polyline points="-210.9074074074074,0.0 -210.9074074074074,1.4150702949211793e-15" data-id="128" data-type="midline" /><polyline points="-210.90740740740742,1.4150702949211954e-15 -210.9074074074074,1.4150702949211793e-15" data-id="129" data-type="midline" /><polyline points="-210.90740740740742,1.4150702949211954e-15 -210.9074074074074,0.0" data-id="130" data-type="midline" /><polyline points="-210.90740740740742,0.0 -210.9074074074074,0.0" data-id="131" data-type="midline" /><polyline points="-210.90740740740742,0.0 -210.90740740740742,1.4150702949211954e-15" data-id="132" data-type="midline" /><polyline points="-230.8227513227513,2.830140589842326e-15 -210.90740740740742,0.0" data-id="133" data-type="midline" /><polyline points="-230.8227513227513,0.0 -230.8227513227513,2.830140589842326e-15" data-id="134" data-type="midline" /><polyline points="-230.82275132275134,2.830140589842391e-15 -230.8227513227513,2.830140589842326e-15" data-id="135" data-type="midline" /><polyline points="-230.82275132275134,2.830140589842391e-15 -230.8227513227513,0.0" data-id="136" data-type="midline" /><polyline points="-230.82275132275134,0.0 -230.8227513227513,0.0" data-id="137" data-type="midline" /><polyline points="-230.82275132275134,0.0 -230.82275132275134,2.830140589842391e-15" data-id="138" data-type="midline" /><polyline points="-245.75925925925924,1.4150702949211793e-15 -230.82275132275134,0.0" data-id="139" data-type="midline" /><polyline points="-245.75925925925924,0.0 -245.75925925925924,1.4150702949211793e-15" data-id="140" data-type="midline" /><polyline points="-245.75925925925927,1.4150702949211954e-15 -245.75925925925924,1.4150702949211793e-15" data-id="141" data-type="midline" /><polyline points="-245.75925925925927,1.4150702949211954e-15 -245.75925925925924,0.0" data-id="142" data-type="midline" /><polyline points="-245.75925925925927,0.0 -245.75925925925924,0.0" data-id="143" data-type="midline" /><polyline points="-245.75925925925927,0.0 -245.75925925925927,1.4150702949211954e-15" data-id="144" data-type="midline" /><polyline points="-265.67460317460313,2.830140589842326e-15 -245.75925925925927,0.0" data-id="145" data-type="midline" /><polyline points="-265.67460317460313,0.0 -265.67460317460313,2.830140589842326e-15" data-id="146" data-type="midline" /><polyline points="-265.6746031746032,2.830140589842391e-15 -265.67460317460313,2.830140589842326e-15" data-id="147" data-type="midline" /><polyline points="-265.6746031746032,2.830140589842391e-15 -265.67460317460313,0.0" data-id="148" data-type="midline" /><polyline points="-265.6746031746032,0.0 -265.67460317460313,0.0" data-id="149" data-type="midline" /><polyline points="-265.6746031746032,0.0 -265.6746031746032,2.830140589842391e-15" data-id="150" data-type="midline" /><polyline points="-300.526455026455,2.830140589842326e-15 -265.6746031746032,0.0" data-id="151" data-type="midline" /><polyline points="-300.526455026455,0.0 -300.526455026455,2.830140589842326e-15" data-id="152" data-type="midline" /><polyline points="-300.52645502645504,2.830140589842391e-15 -300.526455026455,2.830140589842326e-15" data-id="153" data-type="midline" /><polyline points="-300.52645502645504,2.830140589842391e-15 -300.526455026455,0.0" data-id="154" data-type="midline" /><polyline points="-300.52645502645504,0.0 -300.526455026455,0.0" data-id="155" data-type="midline" /><polyline points="-300.52645502645504,0.0 -300.52645502645504,2.830140589842391e-15" data-id="156" data-type="midline" /><polyline points="-315.46296296296293,2.830140589842326e-15 -300.52645502645504,0.0" data-id="157" data-type="midline" /><polyline points="-315.46296296296293,0.0 -315.46296296296293,2.830140589842326e-15" data-id="158" data-type="midline" /><polyline points="-315.462962962963,2.830140589842391e-15 -315.46296296296293,2.830140589842326e-15" data-id="159" data-type="midline" /><polyline points="-315.462962962963,2.830140589842391e-15 -315.46296296296293,0.0" data-id="160" data-type="midline" /><polyline points="-315.462962962963,0.0 -315.46296296296293,0.0" data-id="161" data-type="midline" /><polyline points="-315.462962962963,0.0 -315.462962962963,2.830140589842391e-15" data-id="162" data-type="midline" /><polyline points="-335.37830687830683,2.830140589842326e-15 -315.462962962963,0.0" data-id="163" data-type="midline" /><polyline points="-335.37830687830683,0.0 -335.37830687830683,2.830140589842326e-15" data-id="164" data-type="midline" /><polyline points="-335.3783068783069,2.830140589842391e-15 -335.37830687830683,2.830140589842326e-15" data-id="165" data-type="midline" /><polyline points="-335.3783068783069,2.830140589842391e-15 -335.37830687830683,0.0" data-id="166" data-type="midline" /><polyline points="-335.3783068783069,0.0 -335.37830687830683,0.0" data-id="167" data-type="midline" /><polyline points="-335.3783068783069,0.0 -335.3783068783069,2.830140589842391e-15" data-id="168" data-type="midline" /><polyline points="-350.3148148148148,2.830140589842326e-15 -335.3783068783069,0.0" data-id="169" data-type="midline" /><polyline points="-350.3148148148148,0.0 -350.3148148148148,2.830140589842326e-15" data-id="170" data-type="midline" /><polyline points="-350.31481481481484,2.830140589842391e-15 -350.3148148148148,2.830140589842326e-15" data-id="171" data-type="midline" /><polyline points="-350.31481481481484,2.830140589842391e-15 -350.3148148148148,0.0" data-id="172" data-type="midline" /><polyline points="-350.31481481481484,0.0 -350.3148148148148,0.0" data-id="173" data-type="midline" /><polyline points="-350.31481481481484,0.0 -350.31481481481484,2.830140589842391e-15" data-id="174" data-type="midline" /><polyline points="-385.16666666666663,2.830140589842326e-15 -350.31481481481484,0.0" data-id="175" data-type="midline" /><polyline points="-385.16666666666663,0.0 -385.16666666666663,2.830140589842326e-15" data-id="176" data-type="midline" /><polyline points="-385.1666666666667,2.830140589842391e-15 -385.16666666666663,2.830140589842326e-15" data-id="177" data-type="midline" /><polyline points="-385.1666666666667,2.830140589842391e-15 -385.16666666666663,0.0" data-id="178" data-type="midline" /><polyline points="-385.1666666666667,0.0 -385.16666666666663,0.0" data-id="179" data-type="midline" /><polyline points="-385.1666666666667,0.0 -385.1666666666667,2.830140589842391e-15" data-id="180" data-type="midline" /><polyline points="-420.0185185185185,2.830140589842326e-15 -385.1666666666667,0.0" data-id="181" data-type="midline" /><polyline points="-420.0185185185185,0.0 -420.0185185185185,2.830140589842326e-15" data-id="182" data-type="midline" /><polyline points="-420.01851851851853,2.830140589842391e-15 -420.0185185185185,2.830140589842326e-15" data-id="183" data-type="midline" /><polyline points="-420.01851851851853,2.830140589842391e-15 -420.0185185185185,0.0" data-id="184" data-type="midline" /><polyline points="-420.01851851851853,0.0 -420.0185185185185,0.0" data-id="185" data-type="midline" /><polyline points="-420.01851851851853,0.0 -420.01851851851853,2.830140589842391e-15" data-id="186" data-type="midline" /><polyline points="-454.8703703703703,2.830140589842326e-15 -420.01851851851853,0.0" data-id="187" data-type="midline" /><polyline points="-454.8703703703703,0.0 -454.8703703703703,2.830140589842326e-15" data-id="188" data-type="midline" /><polyline points="-454.8703703703704,2.830140589842391e-15 -454.8703703703703,2.830140589842326e-15" data-id="189" data-type="midline" /><polyline points="-454.8703703703704,2.830140589842391e-15 -454.8703703703703,0.0" data-id="190" data-type="midline" /><polyline points="-454.8703703703704,0.0 -454.8703703703703,0.0" data-id="191" data-type="midline" /><polyline points="-454.8703703703704,0.0 -454.8703703703704,2.830140589842391e-15" data-id="192" data-type="midline" /><polyline points="-489.7222222222222,2.830140589842326e-15 -454.8703703703704,0.0" data-id="193" data-type="midline" /><polyline points="-489.7222222222222,0.0 -489.7222222222222,2.830140589842326e-15" data-id="194" data-type="midline" /><polyline points="-489.72222222222223,2.830140589842391e-15 -489.7222222222222,2.830140589842326e-15" data-id="195" data-type="midline" /><polyline points="-489.72222222222223,2.830140589842391e-15 -489.7222222222222,0.0" data-id="196" data-type="midline" /><polyline points="-489.72222222222223,2.830140589842391e-15 -489.7222222222222,0.0" data-id="197" data-type="midline" /><polyline points="332.5,48.5 341.74338624338617,2.830140589842391e-15" data-id="198" data-type="midline" /><polyline points="-543.5,-0.5 -489.72222222222223,2.830140589842391e-15" data-id="199" data-type="midline" /><polyline points="6.0,-52.5 -1.7962962962962763,0.0" data-id="200" data-type="midline" /><polyline points="157.0,-51.0 137.61111111111111,0.0" data-id="201" data-type="midline" /><polyline points="292.0,-54.0 306.8915343915343,2.830140589842391e-15" data-id="202" data-type="midline" /><polyline points="-497.0,-54.0 -489.72222222222223,2.830140589842391e-15" data-id="203" data-type="midline" /><polyline points="332.5,116.47385631180357 332.5,462.52614368819644" data-id="204" data-type="midline" /><polyline points="329.5,529.0 332.5,462.52614368819644" data-id="205" data-type="midline" /><polyline points="332.5,48.5 332.5,116.47385631180357" data-id="206" data-type="midline" /><polyline points="399.0,104.5 332.5,116.47385631180357" data-id="207" data-type="midline" /><polyline points="398.0,215.0 332.5,116.47385631180357" data-id="208" data-type="midline" /><polyline points="399.0,340.0 332.5,462.52614368819644" data-id="209" data-type="midline" /><polyline points="399.5,458.5 332.5,462.52614368819644" data-id="210" data-type="midline" /><polyline points="331.5,563.5321428571428 331.5,566.4678571428572" data-id="211" data-type="midline" /><polyline points="329.5,529.0 331.5,563.5321428571428" data-id="212" data-type="midline" /><polyline points="329.538206498934,565.3278764717061 331.5,566.4678571428572" data-id="213" data-type="midline" /><polyline points="463.50087839791786,464.5 733.4991216020821,464.5" data-id="214" data-type="midline" /><polyline points="399.5,458.5 463.50087839791786,464.5" data-id="215" data-type="midline" /><polyline points="459.45460401002504,339.5 737.545395989975,339.5" data-id="216" data-type="midline" /><polyline points="399.0,340.0 459.45460401002504,339.5" data-id="217" data-type="midline" /><polyline points="459.45328,218.5 738.54672,218.5" data-id="218" data-type="midline" /><polyline points="398.0,215.0 459.45328,218.5" data-id="219" data-type="midline" /><polyline points="453.0090909090909,104.0 744.9909090909091,104.0" data-id="220" data-type="midline" /><polyline points="399.0,104.5 453.0090909090909,104.0" data-id="221" data-type="midline" /><polyline points="-22.489552875243664,-92.5 33.48955287524367,-92.5" data-id="222" data-type="midline" /><polyline points="6.0,-52.5 33.48955287524367,-92.5" data-id="223" data-type="midline" /><polyline points="111.503125,-91.5 177.496875,-91.5" data-id="224" data-type="midline" /><polyline points="157.0,-51.0 177.496875,-91.5" data-id="225" data-type="midline" /><polyline points="256.503125,-91.5 317.496875,-91.5" data-id="226" data-type="midline" /><polyline points="292.0,-54.0 317.496875,-91.5" data-id="227" data-type="midline" /><polyline points="-498.0,-190.98888888888888 -498.0,-94.0111111111111" data-id="228" data-type="midline" /><polyline points="-497.0,-54.0 -498.0,-94.0111111111111" data-id="229" data-type="midline" /><polyline points="-453.0,-74.5 -498.0,-94.0111111111111" data-id="230" data-type="midline" /><polyline points="-456.5,-135.0 -498.0,-94.0111111111111" data-id="231" data-type="midline" /><polyline points="-455.0,-204.0 -498.0,-190.98888888888888" data-id="232" data-type="midline" /><polyline points="-417.0297777777778,-198.0 -340.9702222222222,-198.0" data-id="233" data-type="midline" /><polyline points="-455.0,-204.0 -417.0297777777778,-198.0" data-id="234" data-type="midline" /><polyline points="-424.0,-131.0 -329.0,-131.0" data-id="235" data-type="midline" /><polyline points="-456.5,-135.0 -424.0,-131.0" data-id="236" data-type="midline" /><polyline points="-428.60247933884295,-75.5 -324.39752066115705,-75.5" data-id="237" data-type="midline" /><polyline points="-453.0,-74.5 -428.60247933884295,-75.5" data-id="238" data-type="midline" /></g></svg>